{"title":"The Jungle Book 2 (2003) BRrip 720p x264 Dual Audio [Eng DD 5.1-","uid":10845981,"size":945994609,"categoryP":"video","categoryS":"hd___movies","magnet":"?xt=urn:btih:313ba6b38f2a6e0283efb21b911c47826e7abe5e&amp;dn=The+Jungle+Book+2+%282003%29+BRrip+720p+x264+Dual+Audio+%5BEng+DD+5.1-&amp;tr=udp%3A%2F%2Ftracker.openbittorrent.com%3A80&amp;tr=udp%3A%2F%2Fopen.demonii.com%3A1337&amp;tr=udp%3A%2F%2Ftracker.coppersurfer.tk%3A6969&amp;tr=udp%3A%2F%2Fexodus.desync.com%3A6969","seeders":3,"leechers":7,"uploader":"Xdesiars","files":4,"time":1408780547,"description":"Format                                   : Matroska\nFormat version                           : Version 2\nFile size                                : 890 MiB\nDuration                                 : 1h 12mn\nOverall bit rate                         : 1 717 Kbps\nMovie name                               : The Jungle Book (2003) by XdesiArsenal [ExD-XMR]\nEncoded date                             : UTC 2014-08-23 02:51:21\nWriting application                      : mkvmerge v5.0.1 ('Es ist Sommer') built on Nov 23 2011 20:48:57\nWriting library                          : libebml v1.2.2 + libmatroska v1.3.0\n\nVideo\nID                                       : 1\nFormat                                   : AVC\nFormat/Info                              : Advanced Video Codec\nFormat profile                           : &lt;a class=&quot;__cf_email__&quot; href=&quot;/cdn-cgi/l/email-protection&quot; data-cfemail=&quot;125f737b7c525e213c23&quot;&gt;[email&amp;#160;protected]&lt;/a&gt;&lt;script cf-hash='f9e31' type=&quot;text/javascript&quot;&gt;\n/* &lt;![CDATA[ */!function(){try{var t=&quot;currentScript&quot;in document?document.currentScript:function(){for(var t=document.getElementsByTagName(&quot;script&quot;),e=t.length;e--;)if(t[e].getAttribute(&quot;cf-hash&quot;))return t[e]}();if(t&amp;&amp;t.previousSibling){var e,r,n,i,c=t.previousSibling,a=c.getAttribute(&quot;data-cfemail&quot;);if(a){for(e=&quot;&quot;,r=parseInt(a.substr(0,2),16),n=2;a.length-n;n+=2)i=parseInt(a.substr(n,2),16)^r,e+=String.fromCharCode(i);e=document.createTextNode(e),c.parentNode.replaceChild(e,c)}}}catch(u){}}();/* ]]&gt; */&lt;/script&gt;\nFormat settings, CABAC                   : Yes\nFormat settings, ReFrames                : 4 frames\nMuxing mode                              : Header stripping\nCodec ID                                 : V_MPEG4/ISO/AVC\nDuration                                 : 1h 12mn\nBit rate                                 : 1 171 Kbps\nWidth                                    : 1 280 pixels\nHeight                                   : 544 pixels\nDisplay aspect ratio                     : 1.691\nFrame rate mode                          : Constant\nFrame rate                               : 23.976 fps\nColor space                              : YUV\nChroma subsampling                       : 4:2:0\nBit depth                                : 8 bits\nScan type                                : Progressive\nBits/(Pixel*Frame)                       : 0.070\nStream size                              : 607 MiB (68%)\nTitle                                    : The Jungle Book (2003) by XdesiArsenal [ExD-XMR]\nWriting library                          : x264 core 112\nLanguage                                 : English\nDefault                                  : Yes\nForced                                   : No\nColor primaries                          : BT.709\nTransfer characteristics                 : BT.709\nMatrix coefficients                      : BT.709\n\nAudio #1\nID                                       : 2\nFormat                                   : AC-3\nFormat/Info                              : Audio Coding 3\nMode extension                           : CM (complete main)\nFormat settings, Endianness              : Big\nMuxing mode                              : Header stripping\nCodec ID                                 : A_AC3\nDuration                                 : 1h 12mn\nBit rate mode                            : Constant\nBit rate                                 : 256 Kbps\nChannel(s)                               : 6 channels\nChannel positions                        : Front: L C R, Side: L R, LFE\nSampling rate                            : 48.0 KHz\nBit depth                                : 16 bits\nCompression mode                         : Lossy\nStream size                              : 133 MiB (15%)\nTitle                                    : XdesiArsenal\nLanguage                                 : English\nDefault                                  : Yes\nForced                                   : No\n\nAudio #2\nID                                       : 3\nFormat                                   : AC-3\nFormat/Info                              : Audio Coding 3\nMode extension                           : CM (complete main)\nFormat settings, Endianness              : Big\nMuxing mode                              : Header stripping\nCodec ID                                 : A_AC3\nDuration                                 : 1h 12mn\nBit rate mode                            : Constant\nBit rate                                 : 256 Kbps\nChannel(s)                               : 2 channels\nChannel positions                        : Front: L R\nSampling rate                            : 48.0 KHz\nBit depth                                : 16 bits\nCompression mode                         : Lossy\nDelay relative to video                  : 14s 900ms\nStream size                              : 133 MiB (15%)\nTitle                                    : XdesiArsenal\nLanguage                                 : Hindi\nDefault                                  : No\nForced                                   : No\n\nMenu\n00:00:00.000                             : en:Chapter 1\n00:03:59.614                             : en:Chapter 2\n00:07:12.807                             : en:Chapter 3\n00:13:21.718                             : en:Chapter 4\n00:19:28.626                             : en:Chapter 5\n00:25:36.034                             : en:Chapter 6\n00:28:51.480                             : en:Chapter 7\n00:33:29.299                             : en:Chapter 8\n00:35:06.771                             : en:Chapter 9\n00:40:36.351                             : en:Chapter 10\n00:43:01.454                             : en:Chapter 11\n00:47:31.599                             : en:Chapter 12\n00:51:44.643                             : en:Chapter 13\n00:54:50.787                             : en:Chapter 14\n00:59:15.844                             : en:Chapter 15\n01:03:55.582                             : en:Chapter 16\n","torrent":{"xt":"urn:btih:313ba6b38f2a6e0283efb21b911c47826e7abe5e","amp;dn":"The+Jungle+Book+2+%282003%29+BRrip+720p+x264+Dual+Audio+%5BEng+DD+5.1-","amp;tr":["udp%3A%2F%2Ftracker.openbittorrent.com%3A80","udp%3A%2F%2Fopen.demonii.com%3A1337","udp%3A%2F%2Ftracker.coppersurfer.tk%3A6969","udp%3A%2F%2Fexodus.desync.com%3A6969"],"infoHash":"313ba6b38f2a6e0283efb21b911c47826e7abe5e","infoHashBuffer":{"type":"Buffer","data":[49,59,166,179,143,42,110,2,131,239,178,27,145,28,71,130,110,122,190,94]},"announce":[],"urlList":[]}}